<svg id="Layer_35" enable-background="new 0 0 64 64" height="512" viewBox="0 0 64 64" width="512" xmlns="http://www.w3.org/2000/svg" xmlns:xlink="http://www.w3.org/1999/xlink"><linearGradient id="SVGID_1_" gradientUnits="userSpaceOnUse" x1="32" x2="32" y1="63" y2="1"><stop offset="0" stop-color="#9f2fff"/><stop offset="1" stop-color="#0bb1d3"/></linearGradient><path d="m48.41 19.673 13.021-8.138c.983-.614 1.569-1.672 1.569-2.831v-.366c0-1.84-1.497-3.338-3.338-3.338-.618 0-1.224.171-1.75.495l-10.026 6.17c-1.196.737-2.545 1.16-3.937 1.281 1.266-1.267 2.051-3.017 2.051-4.946 0-3.86-3.141-7-7-7s-7 3.14-7 7c0 2.237 1.058 4.226 2.696 5.509-4.456 1.406-7.696 5.577-7.696 10.491v8c0 2.757 2.243 5 5 5v18h-4v8h35v-16h-9v-14c0-2.757-2.243-5-5-5h-2.001l.001-5.783c0-1.041.527-1.992 1.41-2.544zm-14.41-11.673c0-2.757 2.243-5 5-5s5 2.243 5 5-2.243 5-5 5-5-2.243-5-5zm27 53h-31v-4h10v-1-3h6v-4h15zm-21-25h6v11h-2v4h-4zm9-6c1.654 0 3 1.346 3 3v14h-4v-11c0-1.103-.897-2-2-2h-6v-4h-2v21 4h-4v-35h-2v15c-1.654 0-3-1.346-3-3v-8c0-4.962 4.037-9 9-9h5.17c2.037 0 4.03-.564 5.765-1.632l10.026-6.17c.211-.13.453-.198.701-.198.737 0 1.338.601 1.338 1.338v.366c0 .465-.235.889-.629 1.135l-13.021 8.139c-1.472.92-2.35 2.505-2.35 4.239l-.001 7.783zm-44 15h1v14c0 2.206 1.794 4 4 4 1.201 0 2.266-.542 3-1.382.734.84 1.799 1.382 3 1.382 2.206 0 4-1.794 4-4v-14h1c2.206 0 4-1.794 4-4v-8c0-5.201-3.331-9.626-7.968-11.288 1.792-1.269 2.968-3.354 2.968-5.712 0-3.86-3.141-7-7-7s-7 3.14-7 7c0 2.358 1.176 4.443 2.968 5.712-4.637 1.662-7.968 6.087-7.968 11.288v8c0 2.206 1.794 4 4 4zm3-29c0-2.757 2.243-5 5-5s5 2.243 5 5-2.243 5-5 5-5-2.243-5-5zm7.169 7.244-2.23 3.121-2.514-3.016c.824-.221 1.684-.349 2.575-.349.745 0 1.47.088 2.169.244zm-12.169 9.756c0-3.876 2.221-7.236 5.452-8.895l4.608 5.53 4.088-5.723c3.447 1.581 5.852 5.055 5.852 9.088v8c0 1.103-.897 2-2 2h-1v-14h-2v30c0 1.103-.897 2-2 2s-2-.897-2-2v-20h-2v20c0 1.103-.897 2-2 2s-2-.897-2-2v-30h-2v14h-1c-1.103 0-2-.897-2-2zm56 26h-2v-2h2zm-4 0h-2v-2h2zm-4 0h-2v-2h2z" fill="url(#SVGID_1_)"/></svg>