<svg id="_x33_0" enable-background="new 0 0 64 64" height="512" viewBox="0 0 64 64" width="512" xmlns="http://www.w3.org/2000/svg" xmlns:xlink="http://www.w3.org/1999/xlink"><linearGradient id="SVGID_1_" gradientUnits="userSpaceOnUse" x1="32" x2="32" y1="63" y2="1"><stop offset="0" stop-color="#9f2fff"/><stop offset="1" stop-color="#0bb1d3"/></linearGradient><path d="m5 5h2v2h-2zm6 0h-2v2h2zm4 0h-2v2h2zm-14 4v-6c0-1.103.897-2 2-2h14c1.103 0 2 .897 2 2v6c0 1.103-.897 2-2 2h-2v1.586c0 1.331-1.083 2.414-2.414 2.414-.645 0-1.251-.251-1.707-.707l-3.293-3.293h-4.586c-1.103 0-2-.897-2-2zm2 0h5.414l3.879 3.879c.239.238.707.045.707-.293v-3.586h4.001l-.001-6h-14zm54-2h2v-2h-2zm-4 0h2v-2h-2zm-14 0h12v-2h-12zm24-4v6c0 1.103-.897 2-2 2h-6.586l-3.293 3.293c-.456.456-1.062.707-1.707.707-1.331 0-2.414-1.083-2.414-2.414v-1.586h-8v1.586c0 1.331-1.083 2.414-2.414 2.414-.645 0-1.251-.251-1.707-.707l-3.293-3.293h-4.586c-1.103 0-2-.897-2-2v-6c0-1.103.897-2 2-2h34c1.103 0 2 .897 2 2zm-1.999 6-.001-6h-34v6h5.414l3.879 3.879c.238.238.707.045.707-.293v-3.586h12v3.586c0 .338.469.531.707.293l3.879-3.879zm-31.001-2h7v-2h-7zm31 54h2v2h-62v-2h2v-5c0-1.545 1.178-2.806 2.681-2.968.663-1.409 1.756-2.54 3.101-3.239-1.081-.917-1.782-2.268-1.782-3.793 0-2.757 2.243-5 5-5s5 2.243 5 5c0 1.525-.701 2.876-1.781 3.794 1.344.698 2.438 1.829 3.101 3.239 1.502.161 2.68 1.422 2.68 2.967v5h2v-5c0-1.545 1.178-2.806 2.681-2.968.663-1.409 1.756-2.54 3.101-3.239-1.081-.917-1.782-2.268-1.782-3.793 0-2.757 2.243-5 5-5s5 2.243 5 5c0 1.525-.701 2.876-1.781 3.794 1.344.698 2.438 1.829 3.101 3.239 1.502.161 2.68 1.422 2.68 2.967v5h2v-5c0-1.545 1.178-2.806 2.681-2.968.663-1.409 1.756-2.54 3.101-3.239-1.081-.917-1.782-2.268-1.782-3.793 0-2.757 2.243-5 5-5s5 2.243 5 5c0 1.525-.701 2.876-1.781 3.794 1.344.698 2.438 1.829 3.101 3.239 1.502.161 2.68 1.422 2.68 2.967zm-9-12c1.654 0 3-1.346 3-3s-1.346-3-3-3-3 1.346-3 3 1.346 3 3 3zm-3.998 4h7.996c-.928-1.234-2.399-2-3.998-2s-3.07.766-3.998 2zm-3.002 8h14v-5c0-.551-.449-1-1-1h-12c-.551 0-1 .449-1 1zm-13-12c1.654 0 3-1.346 3-3s-1.346-3-3-3-3 1.346-3 3 1.346 3 3 3zm-3.998 4h7.996c-.928-1.234-2.399-2-3.998-2s-3.07.766-3.998 2zm-3.002 8h14v-5c0-.551-.449-1-1-1h-12c-.551 0-1 .449-1 1zm-13-12c1.654 0 3-1.346 3-3s-1.346-3-3-3-3 1.346-3 3 1.346 3 3 3zm-3.998 4h7.996c-.928-1.234-2.399-2-3.998-2s-3.07.766-3.998 2zm-3.002 8h14v-5c0-.551-.449-1-1-1h-12c-.551 0-1 .449-1 1zm58-28v20h-2v-20h-58v20h-2v-20c0-1.103.897-2 2-2v-5c0-1.654 1.346-3 3-3h1.101c-.066-.323-.101-.658-.101-1 0-2.757 2.243-5 5-5s5 2.243 5 5c0 .342-.035.677-.101 1h1.101c1.654 0 3 1.346 3 3v5h2v-5c0-1.654 1.346-3 3-3h1.101c-.066-.323-.101-.658-.101-1 0-2.757 2.243-5 5-5s5 2.243 5 5c0 .342-.035.677-.101 1h1.101c1.654 0 3 1.346 3 3v5h2v-5c0-1.654 1.346-3 3-3h1.101c-.066-.323-.101-.658-.101-1 0-2.757 2.243-5 5-5s5 2.243 5 5c0 .342-.035.677-.101 1h1.101c1.654 0 3 1.346 3 3v5c1.103 0 2 .897 2 2zm-7.026-8c-.221.292-.474.555-.753.792 1.959 1.021 3.372 2.94 3.699 5.208h.08v-5c0-.551-.449-1-1-1zm-3.974 2c-2.414 0-4.434 1.721-4.899 4h9.798c-.465-2.279-2.485-4-4.899-4zm-3-5c0 1.654 1.346 3 3 3s3-1.346 3-3-1.346-3-3-3-3 1.346-3 3zm-4 9h.08c.327-2.269 1.74-4.188 3.699-5.208-.279-.237-.532-.5-.753-.792h-2.026c-.551 0-1 .449-1 1zm-9.026-6c-.221.292-.474.555-.753.792 1.959 1.021 3.372 2.94 3.699 5.208h.08v-5c0-.551-.449-1-1-1zm-3.974 2c-2.414 0-4.434 1.721-4.899 4h9.798c-.465-2.279-2.485-4-4.899-4zm-3-5c0 1.654 1.346 3 3 3s3-1.346 3-3-1.346-3-3-3-3 1.346-3 3zm-4 9h.08c.327-2.269 1.74-4.188 3.699-5.208-.279-.237-.532-.5-.753-.792h-2.026c-.551 0-1 .449-1 1zm-9.026-6c-.221.292-.474.555-.753.792 1.959 1.021 3.372 2.94 3.699 5.208h.08v-5c0-.551-.449-1-1-1zm-3.974 2c-2.414 0-4.434 1.721-4.899 4h9.798c-.465-2.279-2.485-4-4.899-4zm-3-5c0 1.654 1.346 3 3 3s3-1.346 3-3-1.346-3-3-3-3 1.346-3 3zm-4 9h.08c.327-2.269 1.74-4.188 3.699-5.208-.279-.237-.532-.5-.753-.792h-2.026c-.551 0-1 .449-1 1z" fill="url(#SVGID_1_)"/></svg>