<svg id="Layer_5" enable-background="new 0 0 64 64" height="512" viewBox="0 0 64 64" width="512" xmlns="http://www.w3.org/2000/svg" xmlns:xlink="http://www.w3.org/1999/xlink"><linearGradient id="SVGID_1_" gradientUnits="userSpaceOnUse" x1="32" x2="32" y1="63" y2="1"><stop offset="0" stop-color="#9f2fff"/><stop offset="1" stop-color="#0bb1d3"/></linearGradient><path d="m57 59h1c1.654 0 3-1.346 3-3v-16c0-1.654-1.346-3-3-3h-10v-3.906c0-2.262-.881-4.389-2.481-5.989-1.325-1.325-3.079-2.183-4.938-2.415l-2.829-.354c-.999-.125-1.752-.978-1.752-1.984v-.615c.991-.693 1.79-1.636 2.315-2.736h.685c2.206 0 4-1.794 4-4 0-1-.382-1.904-.99-2.605.639-1.141.99-2.41.99-3.733 0-4.225-3.438-7.663-7.663-7.663h-6.675c-4.225 0-7.662 3.438-7.662 7.663 0 1.323.351 2.593.99 3.732-.608.701-.99 1.605-.99 2.605 0 2.206 1.794 4 4 4h.685c.525 1.1 1.324 2.043 2.315 2.736v.509c0 .99-.725 1.839-1.687 1.974-1.304.184-2.525.464-3.63.832-2.026.675-4.003 2.152-5.211 3.173-.098-.102-.196-.205-.303-.3l-6.719-5.972c-.689-.614-1.578-.952-2.502-.952h-.18c-2.078 0-3.768 1.69-3.768 3.768 0 1.066.455 2.087 1.247 2.8l7.243 6.519c1.371 1.233 3.142 1.913 4.987 1.913 1.151 0 2.303-.272 3.333-.787l1.19-.595v2.382h-16c-1.654 0-3 1.346-3 3v16c0 1.654 1.346 3 3 3h1v2h-6v2h62v-2h-6zm-22-6h6v.382l-1.236.618c-1.249.625-2.146 1.714-2.539 3h-1.225c-.551 0-1-.448-1-1zm4 5.472c0-1.144.635-2.171 1.658-2.683l.342-.171v3.382h12v-3.382l.342.171c1.023.512 1.658 1.539 1.658 2.683v2.528h-16zm4-1.472v-10c0-2.206 1.794-4 4-4s4 1.794 4 4v10zm15 0h-1.224c-.393-1.286-1.29-2.375-2.539-3l-1.237-.618v-.382h6v3c0 .552-.449 1-1 1zm1-17v11h-6v-4c0-3.309-2.691-6-6-6s-6 2.691-6 6v4h-6v-11c0-.552.449-1 1-1h22c.551 0 1 .448 1 1zm-23.55-14.578c.081.067.168.126.254.187l-.468 4.213-1.883-1.883zm3.55-8.422h-.08c.047-.328.08-.66.08-1v-3c1.103 0 2 .897 2 2s-.897 2-2 2zm-14 0c-1.103 0-2-.897-2-2s.897-2 2-2v3c0 .34.033.672.08 1zm.084-6h-.084c-.483 0-.939.099-1.368.257-.413-.799-.632-1.681-.632-2.594 0-3.123 2.54-5.663 5.663-5.663h6.675c3.122 0 5.662 2.54 5.662 5.663 0 .913-.219 1.795-.632 2.594-.428-.158-.885-.257-1.368-.257v-2h-1.528c-2.772 0-5.547-.655-8.025-1.895l-.37-.185-.659.22c-1.759.586-3.016 2.082-3.334 3.86zm1.916 5v-4.117c0-1.251.771-2.362 1.933-2.804 2.515 1.19 5.285 1.848 8.067 1.915v5.006c0 2.757-2.243 5-5 5s-5-2.243-5-5zm5 7c.707 0 1.388-.107 2.032-.303.031.36.099.711.22 1.039l-2.252 2.702-2.28-2.736c.125-.319.198-.658.238-1.008.647.198 1.332.306 2.042.306zm-3.497 2.365 2.144 2.573-1.883 1.883-.479-4.309c.072-.049.15-.092.218-.147zm-22.503-.597c0-.975.793-1.768 1.768-1.768h.18c.434 0 .851.159 1.174.447l1.597 1.42-2.598 2.598-1.536-1.383c-.372-.335-.585-.814-.585-1.314zm16.707 5.525-1.414 1.414c.221.221.395.485.515.771l-1.892.946c-1.962.981-4.458.642-6.087-.823l-4.219-3.797 2.607-2.607 3.624 3.221c.737.656 1.159 1.597 1.159 2.582h2c0-.724-.15-1.431-.422-2.087 1.056-.911 2.919-2.358 4.738-2.964.921-.307 1.948-.539 3.038-.705l.881 7.935 4.765-4.764 4.764 4.764.871-7.841 2.698.337c1.42.178 2.76.833 3.772 1.845 1.222 1.221 1.895 2.846 1.895 4.574v3.906h-4v-3.586c0-.635.258-1.258.707-1.707l-1.414-1.414c-.834.833-1.293 1.942-1.293 3.121v3.586h-4c-1.654 0-3 1.346-3 3v16c0 1.654 1.346 3 3 3h1v2h-10v-2h1c1.654 0 3-1.346 3-3v-16c0-1.654-1.346-3-3-3h-4v-3.586c0-1.179-.459-2.288-1.293-3.121zm-8.471 21.943c-.809-1.617-1.236-3.427-1.236-5.236 0-2.206 1.794-4 4-4s4 1.794 4 4c0 1.809-.427 3.619-1.236 5.236l-.382.764h-4.764zm7.317.895c.021-.042.035-.088.056-.131h7.391v3c0 .552-.449 1-1 1h-1.383c-.539-1.323-1.62-2.389-3.036-2.861l-2.171-.723zm-15.553-14.131h22c.551 0 1 .448 1 1v11h-6.622c.396-1.297.622-2.646.622-4 0-3.309-2.691-6-6-6s-6 2.691-6 6c0 1.354.226 2.703.622 4h-6.622v-11c0-.552.449-1 1-1zm-1 17v-3h7.391c.021.043.035.088.056.131l.143.285-2.172.723c-1.416.473-2.496 1.538-3.035 2.861h-1.383c-.551 0-1-.448-1-1zm4 2.883c0-1.293.824-2.437 2.051-2.847l3.11-1.036h5.679l3.109 1.036c1.227.41 2.051 1.554 2.051 2.847v2.117h-16zm40-47.883h10v2h-10zm0 4h10v2h-10zm11-8h-12c-1.654 0-3 1.346-3 3v8c0 1.654 1.346 3 3 3h1v1.586c0 1.331 1.083 2.414 2.414 2.414.645 0 1.251-.251 1.707-.707l3.293-3.293h3.586c1.654 0 3-1.346 3-3v-8c0-1.654-1.346-3-3-3zm1 11c0 .551-.449 1-1 1h-4.414l-3.879 3.879c-.238.238-.707.045-.707-.293v-3.586h-3c-.551 0-1-.449-1-1v-8c0-.551.449-1 1-1h12c.551 0 1 .449 1 1z" fill="url(#SVGID_1_)"/></svg>