<svg id="_x33_0" enable-background="new 0 0 64 64" height="512" viewBox="0 0 64 64" width="512" xmlns="http://www.w3.org/2000/svg" xmlns:xlink="http://www.w3.org/1999/xlink"><linearGradient id="SVGID_1_" gradientUnits="userSpaceOnUse" x1="32" x2="32" y1="63" y2="1"><stop offset="0" stop-color="#9f2fff"/><stop offset="1" stop-color="#0bb1d3"/></linearGradient><path d="m39 21c.552 0 1 .448 1 1s-.448 1-1 1-1-.448-1-1 .448-1 1-1zm-6 2c.552 0 1-.448 1-1s-.448-1-1-1-1 .448-1 1 .448 1 1 1zm1 6h2c2.206 0 4-1.794 4-4h-2c0 1.103-.897 2-2 2h-2zm5.707-10.707c-1.085-1.085-1.707-2.587-1.707-4.121v-1.172h-2v1.172c0 2.061.836 4.078 2.293 5.535zm23.293-5.777v2.656c0 1.918-.725 3.799-2 5.226v6.46c0 7.541-4.91 14.191-12.028 16.468.01.224.028.449.028.674v1h5c4.963 0 9 4.037 9 9s-4.037 9-9 9h-13c-1.103 0-2-.897-2-2v-4c0-1.103.897-2 2-2h13c.908 0 1.778-.186 2.586-.506-.527-.905-1.497-1.494-2.586-1.494h-36c-4.963 0-9-4.037-9-9v-4c0-2.515 1.379-4.838 3.519-6.073-.977-2.176-1.519-4.573-1.519-7.07v-3.857h-4c-1.103 0-2-.897-2-2v-1c0-1.302.839-2.402 2-2.816v-5.21c-.369-.279-.695-.605-.974-.974h-.026c-2.757 0-5-2.243-5-5v-1c0-1.103.897-2 2-2h2c0-1.103.897-2 2-2h6c1.103 0 2 .897 2 2h2c1.103 0 2 .897 2 2v1c0 2.757-2.243 5-5 5h3.484c1.939 0 3.516 1.577 3.516 3.516 0 .446-.084.885-.25 1.304l-1.75 4.372v5.462c0 4.602 3.744 8.346 8.346 8.346 1.512 0 2.93-.591 3.99-1.615-1.448-.782-2.494-2.242-2.638-3.97l-.122-1.458c-2.004-.215-3.576-1.896-3.576-3.957 0-.85.271-1.635.724-2.284l-.545-2.725c-.118-.594-.179-1.2-.179-1.802 0-5.067 4.122-9.189 9.189-9.189h3.621c5.068 0 9.19 4.122 9.19 9.189 0 .602-.061 1.208-.179 1.801l-.545 2.726c.454.649.724 1.434.724 2.284 0 2.061-1.572 3.742-3.577 3.957l-.122 1.458c-.144 1.729-1.19 3.188-2.637 3.97 1.06 1.024 2.478 1.615 3.99 1.615 4.602 0 8.346-3.744 8.346-8.346v-5.462l-1.749-4.371c-.167-.421-.251-.859-.251-1.305 0-1.939 1.577-3.516 3.516-3.516h.669c.413-1.161 1.513-2 2.815-2h1.484c1.939 0 3.516 1.577 3.516 3.516zm-18 10.484c0-.777-.45-1.444-1.098-1.775l-.307 3.674c.811-.255 1.405-1.005 1.405-1.899zm-16.595 1.899-.306-3.675c-.649.332-1.099.999-1.099 1.776 0 .894.594 1.644 1.405 1.899zm2.285 3.35c.129 1.543 1.443 2.751 2.991 2.751h4.639c1.548 0 2.861-1.208 2.99-2.751l.681-8.169c.006-.079.01-.162.01-.244 0-1.266-.807-2.384-2.007-2.783l-.311-.104.635-1.896.31.104c1.788.596 3.052 2.143 3.317 3.969.197.048.391.103.576.179l.341-1.705c.091-.465.138-.94.138-1.411 0-3.963-3.226-7.189-7.189-7.189h-3.621c-3.964 0-7.19 3.226-7.19 7.189 0 .471.047.945.14 1.41l.341 1.704c.187-.077.384-.133.584-.182.302-1.808 1.695-3.294 3.539-3.662l.498-.1c-.061-.391-.102-.788-.102-1.187v-1.172h2v1.172c0 1.534.622 3.036 1.707 4.121l-1.414 1.414c-.696-.696-1.246-1.523-1.635-2.419l-.662.133c-1.157.231-1.996 1.255-1.996 2.434 0 .069.003.139.009.209zm2.781 4.731c-.609.788-1.35 1.441-2.186 1.935.287 1.991 1.81 3.552 3.715 3.967v-1.882h2v1.882c1.905-.415 3.429-1.977 3.715-3.967-.837-.494-1.578-1.147-2.186-1.935-.071.003-.138.02-.21.02h-4.639c-.071 0-.138-.017-.209-.02zm-18.471-27.98v3c0 .288-.038.567-.085.842 1.205-.389 2.085-1.509 2.085-2.842v-1zm-8 3c0 1.654 1.346 3 3 3s3-1.346 3-3v-5h-6zm-1.915.842c-.047-.275-.085-.554-.085-.842v-3h-2v1c0 1.333.88 2.453 2.085 2.842zm3.915 4.057v4.101h2v-4.101c-.323.066-.658.101-1 .101s-.677-.035-1-.101zm-2 8.101h6.002l-.002-1c0-.552-.448-1-1-1h-4c-.552 0-1 .448-1 1zm6 2v3.857c0 6.529 4.158 12.309 10.239 14.439.336-1.94 1.033-3.812 2.042-5.504-4.719-.96-8.281-5.14-8.281-10.138v-5.847l1.892-4.729c.071-.18.108-.37.108-.562 0-.836-.68-1.516-1.516-1.516h-4.484v4.184c1.161.414 2 1.514 2 2.816v1c0 1.103-.897 2-2 2zm32 24v4h4v-4zm-2 0h-4v4h4zm-6 0h-4v4h4zm-6 0h-4v4h4zm-10 0v4h4v-4zm2-2v-1c0-.225.018-.45.028-.675-1.698-.543-3.27-1.33-4.679-2.325h-.349c-1.654 0-3 1.346-3 3v.899c.323.066.658.101 1 .101zm-12-5c0 1.628.794 3.063 2.002 3.976.01-2.149 1.389-3.966 3.304-4.661-1.109-1.071-2.065-2.288-2.854-3.611-1.492.891-2.452 2.525-2.452 4.296zm2 8.889v-2.574c-.716-.342-1.368-.795-1.925-1.347.211 1.515.904 2.877 1.925 3.921zm5 2.111h1v-4h-3c-.34 0-.672-.033-1-.08v3.395c.911.434 1.926.685 3 .685zm36 6h-13v4h13c3.859 0 7-3.141 7-7 0-.108-.003-.217-.008-.324-1.678 2.074-4.219 3.324-6.992 3.324zm3-9.318v4.324c.533.4.976.911 1.315 1.497.837-.657 1.536-1.498 2.011-2.498-.691-1.455-1.873-2.63-3.326-3.323zm-3-.682h-3v4h3c.342 0 .674.045 1 .112v-4.038c-.327-.048-.66-.074-1-.074zm-7-2v-1c0-2.851-.902-5.674-2.533-8.012-.641-.015-1.267-.106-1.87-.272-.686 3.046-3.431 5.284-6.597 5.284s-5.911-2.237-6.597-5.283c-.603.165-1.23.256-1.87.272-1.631 2.337-2.533 5.16-2.533 8.011v1zm12.293-25.707c.669-.669 1.161-1.498 1.441-2.394-.237.059-.48.101-.734.101h-5v-2h1c.552 0 1-.448 1-1s-.448-1-1-1h-1.484c-.836 0-1.516.68-1.516 1.516 0 .192.037.383.109.565l1.891 4.727v5.847c0 4.998-3.562 9.178-8.281 10.138 1.009 1.692 1.706 3.564 2.042 5.504 6.081-2.13 10.239-7.91 10.239-14.44v-7.271zm1.707-5.293v-1.484c0-.836-.68-1.516-1.516-1.516h-1.484c-.28 0-.531.116-.713.302 1.009.483 1.713 1.506 1.713 2.698 0 .352-.072.686-.184 1h1.184c.552 0 1-.448 1-1zm-36-13h-4v2h4zm4.707 4.707-1.414-1.414-2 2 1.414 1.414zm21.293-.707h-5v2h5zm7.707-1.707-2-2-1.414 1.414 2 2zm-19.707-2.293h-2v2h2zm-17.293 22.707 2-2-1.414-1.414-2 2zm4 4.586-1.414 1.414 2 2 1.414-1.414zm18.586 2 1.414 1.414 2-2-1.414-1.414zm7.414-10-2-2-1.414 1.414 2 2zm6 23.414 2-2-1.414-1.414-2 2zm-52-17.414-2-2-1.414 1.414 2 2zm2.586 4-2 2 1.414 1.414 2-2zm-4 12.414 2 2 1.414-1.414-2-2z" fill="url(#SVGID_1_)"/></svg>