<?xml version="1.0" encoding="utf-8"?>
<!-- Generator: Adobe Illustrator 25.0.0, SVG Export Plug-In . SVG Version: 6.00 Build 0)  -->
<svg version="1.1"
	 id="logo_1_" xmlns:cc="http://creativecommons.org/ns#" xmlns:dc="http://purl.org/dc/elements/1.1/" xmlns:rdf="http://www.w3.org/1999/02/22-rdf-syntax-ns#" xmlns:svg="http://www.w3.org/2000/svg"
	 xmlns="http://www.w3.org/2000/svg" xmlns:xlink="http://www.w3.org/1999/xlink" x="0px" y="0px" viewBox="0 0 400 300"
	 style="enable-background:new 0 0 400 300;" xml:space="preserve">
<style type="text/css">
	.st0{fill:#049FD9;stroke:#000000;stroke-width:0.75;stroke-miterlimit:10;}
</style>
<path id="logo" class="st0" d="M390,112c0-4.6-3.7-8.2-8.2-8.2c-4.6,0-8.3,3.7-8.3,8.2v17.3c0,4.6,3.7,8.3,8.3,8.3
	c4.5,0,8.2-3.7,8.2-8.3V112z M344.6,89.2c0-4.5-3.7-8.2-8.3-8.2s-8.2,3.7-8.2,8.2v40.1c0,4.6,3.7,8.3,8.2,8.3c4.7,0,8.3-3.7,8.3-8.3
	C344.6,129.3,344.6,89.2,344.6,89.2z M299.1,58.1c0-4.6-3.7-8.2-8.2-8.2c-4.6,0-8.2,3.7-8.2,8.2v87.7c0,4.6,3.7,8.3,8.2,8.3
	c4.6,0,8.2-3.7,8.2-8.3V58.1z M253.7,89.2c0-4.5-3.7-8.2-8.2-8.2s-8.2,3.7-8.2,8.2v40.1c0,4.6,3.7,8.3,8.2,8.3
	c4.6,0,8.2-3.7,8.2-8.3C253.7,129.3,253.7,89.2,253.7,89.2z M208.2,112c0-4.6-3.7-8.2-8.2-8.2c-4.6,0-8.3,3.7-8.3,8.2v17.3
	c0,4.6,3.7,8.3,8.3,8.3c4.5,0,8.2-3.7,8.2-8.3C208.2,129.3,208.2,112,208.2,112z M162.8,89.2c0-4.5-3.7-8.2-8.3-8.2
	s-8.3,3.7-8.3,8.2v40.1c0,4.6,3.7,8.3,8.3,8.3s8.3-3.7,8.3-8.3C162.8,129.3,162.8,89.2,162.8,89.2z M117.4,58.1
	c0-4.6-3.7-8.2-8.3-8.2s-8.3,3.7-8.3,8.2v87.7c0,4.6,3.7,8.3,8.3,8.3s8.3-3.7,8.3-8.3V58.1z M71.9,89.2c0-4.5-3.7-8.2-8.3-8.2
	s-8.3,3.7-8.3,8.2v40.1c0,4.6,3.7,8.3,8.3,8.3s8.3-3.7,8.3-8.3V89.2z M26.5,112c0-4.6-3.7-8.2-8.3-8.2c-4.6,0-8.3,3.7-8.3,8.2v17.3
	c0,4.6,3.7,8.3,8.3,8.3c4.6,0,8.3-3.7,8.3-8.3V112L26.5,112z M197.3,183.8c-0.5-0.1-8.1-2.1-16.2-2.1c-15.4,0-24.6,8.3-24.6,20.6
	c0,10.9,7.7,16.4,17,19.3c1,0.3,2.5,0.8,3.6,1.1c4.1,1.3,7.4,3.2,7.4,6.6c0,3.7-3.8,6.2-12.1,6.2c-7.3,0-14.3-2.1-15.7-2.5v15.2
	c0.8,0.2,9.1,1.8,18,1.8c12.8,0,27.3-5.6,27.3-22.2c0-8-4.9-15.5-15.7-18.9l-4.6-1.5c-2.7-0.9-7.6-2.3-7.6-6.3
	c0-3.2,3.6-5.4,10.3-5.4c5.8,0,12.8,1.9,13,2v-13.9H197.3z M338.1,215.9c0,9.6-7.4,17.4-17.2,17.4c-9.9,0-17.2-7.8-17.2-17.4
	c0-9.6,7.3-17.4,17.2-17.4C330.7,198.6,338.1,206.4,338.1,215.9 M320.9,181.8c-20.3,0-34.9,15.3-34.9,34.2s14.6,34.2,34.9,34.2
	c20.3,0,34.9-15.3,34.9-34.2S341.2,181.8,320.9,181.8 M94.5,184.1c-1.6-0.5-7.4-2.4-15.2-2.4c-20.3,0-35.2,14.5-35.2,34.2
	c0,21.3,16.4,34.2,35.2,34.2c7.4,0,13.1-1.8,15.2-2.4V230c-0.7,0.4-6.2,3.5-14,3.5c-11.1,0-18.3-7.8-18.3-17.6
	c0-10.1,7.5-17.6,18.3-17.6c8,0,13.3,3.2,14,3.5V184.1z M268.4,184.1c-1.6-0.5-7.4-2.4-15.2-2.4c-20.3,0-35.2,14.5-35.2,34.2
	c0,21.3,16.5,34.2,35.2,34.2c7.4,0,13.1-1.8,15.2-2.4V230c-0.7,0.4-6.2,3.5-14,3.5c-11.1,0-18.2-7.8-18.2-17.6
	c0-10.1,7.5-17.6,18.2-17.6c8,0,13.3,3.2,14,3.5V184.1z M134.1,249h-16.7v-66h16.7V249z"/>
</svg>
