<?xml version="1.0" encoding="utf-8"?>
<!-- Generator: Adobe Illustrator 25.0.0, SVG Export Plug-In . SVG Version: 6.00 Build 0)  -->
<svg version="1.1" id="Layer_1" xmlns="http://www.w3.org/2000/svg" xmlns:xlink="http://www.w3.org/1999/xlink" x="0px" y="0px"
	 viewBox="0 0 1080 1080" style="enable-background:new 0 0 1080 1080;" xml:space="preserve">
<style type="text/css">
	.st0{fill:#FFFFFF;}
</style>
<g id="layer1" transform="translate(0,-622.51962)">
	<g id="g976" transform="matrix(21.342651,0,0,21.342651,-9288.6154,-10489.56)">
		<g id="g958">
			<path id="path952" class="st0" d="M441.19,554.91c0.01,0.94,0.04,1.77,0.08,2.5c0.06,0.73,0.13,1.43,0.23,2.11
				c-0.48,0.21-0.99,0.36-1.53,0.44c-0.54,0.1-1.2,0.15-2,0.15c-0.18-0.94-0.32-2.14-0.41-3.62c-0.1-1.49-0.14-3.13-0.14-4.93
				c0-1.88,0.05-3.93,0.14-6.17c0.1-2.25,0.22-3.85,0.37-4.81c0.61,0,1.4,0.1,2.37,0.29c0.98,0.19,1.69,0.4,2.13,0.63
				c-0.19,0.79-0.39,2.01-0.6,3.64c-0.21,1.62-0.36,3.26-0.47,4.93c0.39-0.49,0.78-1.03,1.2-1.63s1.22-1.84,2.41-3.71
				c0.51,0.28,1.03,0.7,1.55,1.26c0.52,0.57,0.92,1.12,1.2,1.68c-0.54,0.79-1.16,1.57-1.88,2.33c-0.72,0.74-1.55,1.52-2.52,2.33
				c0.52,0.62,1.13,1.24,1.82,1.87c0.69,0.63,1.62,1.4,2.81,2.31c-0.66,0.94-1.24,1.63-1.73,2.06c-0.48,0.42-1,0.73-1.55,0.92
				c-0.63-0.66-1.24-1.38-1.82-2.14C442.27,556.6,441.72,555.78,441.19,554.91L441.19,554.91z"/>
			<path id="path954" class="st0" d="M472.84,559.28c-0.4,0.13-0.91,0.24-1.53,0.34c-0.61,0.1-1.16,0.15-1.65,0.15
				c-0.06-0.32-0.12-0.7-0.19-1.14c-0.07-0.44-0.14-0.96-0.21-1.58c-0.3,0.83-0.69,1.43-1.16,1.82c-0.45,0.4-1.01,0.61-1.67,0.61
				c-1.21,0-2.15-0.53-2.81-1.58c-0.66-1.05-0.99-2.52-0.99-4.39c0-2.38,0.5-4.27,1.51-5.68c1.02-1.42,2.39-2.14,4.11-2.14
				c0.07,0,0.12,0,0.17,0c0.06,0,0.1,0.01,0.14,0.02c-0.01-0.71-0.03-1.4-0.04-2.06c-0.01-0.68-0.02-1.32-0.02-1.92
				c0.32-0.19,0.76-0.35,1.34-0.46c0.58-0.11,1.17-0.17,1.77-0.17c0.28,0,0.54,0.02,0.8,0.05c0.26,0.03,0.52,0.08,0.78,0.15
				c-0.14,1.13-0.25,2.96-0.33,5.49c-0.07,2.53-0.1,5.71-0.1,9.57c0,0.45,0,0.91,0,1.36C472.79,558.14,472.81,558.66,472.84,559.28
				L472.84,559.28z M466.67,552.92c0,1.04,0.09,1.83,0.27,2.38c0.18,0.53,0.44,0.8,0.78,0.8c0.25,0,0.47-0.24,0.68-0.73
				c0.22-0.49,0.39-1.17,0.52-2.06c-0.07-1.12-0.12-2.06-0.17-2.82c-0.04-0.78-0.08-1.5-0.1-2.16h-0.14c-0.56,0-1.01,0.4-1.34,1.21
				C466.83,550.33,466.67,551.46,466.67,552.92L466.67,552.92z"/>
			<path id="path956" class="st0" d="M478.99,550.34c0.17,0.05,0.32,0.09,0.47,0.12c0.17,0.02,0.3,0.02,0.41,0.02
				c0.11,0,0.23,0,0.37,0c0.15-0.02,0.25-0.03,0.31-0.05c0.08-0.39,0.14-0.75,0.19-1.09c0.06-0.34,0.08-0.65,0.08-0.92
				c0-0.34-0.04-0.59-0.12-0.75c-0.07-0.16-0.18-0.24-0.33-0.24c-0.28,0-0.54,0.27-0.78,0.8
				C479.34,548.75,479.14,549.45,478.99,550.34L478.99,550.34z M481.49,554.08c0.52,0.11,1.05,0.34,1.59,0.68
				c0.55,0.32,1,0.7,1.34,1.12c-0.11,0.42-0.36,0.87-0.76,1.36c-0.4,0.49-0.87,0.89-1.42,1.21c-0.44,0.26-0.92,0.45-1.44,0.58
				c-0.51,0.15-1.05,0.22-1.61,0.22c-1.43,0-2.55-0.49-3.36-1.46c-0.8-0.99-1.2-2.32-1.2-4.01c0-1.05,0.14-2.08,0.41-3.08
				c0.29-1.02,0.69-1.94,1.22-2.77c0.59-0.92,1.27-1.64,2.04-2.16c0.77-0.52,1.56-0.78,2.37-0.78c1.16,0,2.08,0.35,2.77,1.04
				c0.69,0.68,1.03,1.59,1.03,2.74c0,0.52-0.05,1.09-0.14,1.72c-0.08,0.62-0.19,1.15-0.33,1.6c-0.43,0.24-0.96,0.43-1.59,0.56
				c-0.62,0.11-1.36,0.17-2.23,0.17c-0.25,0-0.5-0.02-0.74-0.05c-0.23-0.03-0.47-0.07-0.7-0.12c-0.01,0.1-0.02,0.21-0.02,0.34
				c0,0.11,0,0.29,0,0.53c0,0.97,0.1,1.72,0.31,2.23c0.22,0.52,0.53,0.78,0.93,0.78c0.26,0,0.54-0.25,0.85-0.75
				C481.09,555.3,481.32,554.73,481.49,554.08L481.49,554.08z"/>
		</g>
		<path id="path960" class="st0" d="M454.78,543.92c-3.59,0-6.47,3.4-6.47,7.62s2.89,7.62,6.47,7.62c3.59,0,6.48-3.4,6.48-7.62
			S458.37,543.92,454.78,543.92z M456.32,547.59l2.41,6.18l-7.89-4.29L456.32,547.59z M452.84,550.94l4.1,2.29l-2.98,2.14
			l-0.53-1.79l-0.53,0.11l-0.04-1.58L452.84,550.94z"/>
		<g id="g974">
			<path id="path962" class="st0" d="M446.46,535.45c-0.18-0.12-0.54-0.19-1.07-0.19l0.06,0.77c0.06,0.45,0.11,1.28,0.15,2.51
				c0.06-0.02,0.11-0.04,0.13-0.06c0.06-0.05,0.12-0.07,0.18-0.07c0.09-0.02,0.18-0.1,0.26-0.22c0.21-0.21,0.37-0.38,0.49-0.52
				l0.35-0.47c0.02-0.01,0.06-0.1,0.11-0.27c0.05-0.18,0.08-0.33,0.1-0.45c0-0.24-0.02-0.38-0.06-0.41c0-0.02-0.04-0.12-0.13-0.31
				c-0.03-0.02-0.11-0.09-0.25-0.19L446.46,535.45z M444.27,534.03l0.59-0.1l0.76-0.06l0.4,0.06c0.03,0.03,0.1,0.05,0.2,0.06
				c0.2-0.01,0.48,0.13,0.82,0.41c0.08,0.03,0.15,0.09,0.21,0.17l0.4,0.57c0.01,0.02,0.04,0.06,0.06,0.14
				c0.03,0.07,0.07,0.15,0.12,0.24c-0.01,0,0,0.03,0.03,0.1c0.09,0.18,0.13,0.29,0.13,0.32c0.04,0.03,0.07,0.14,0.11,0.32
				c0.04,0.18,0.05,0.31,0.03,0.37c0.01,0.01,0,0.1-0.02,0.29c-0.05,0.4-0.14,0.69-0.26,0.88l-0.14,0.3l-0.23,0.4l-0.14,0.15
				c-0.25,0.33-0.56,0.59-0.93,0.77c-0.01,0.01-0.04,0.02-0.06,0.02l-0.25,0.1l-0.41,0.12c0,0.24,0.02,0.8,0.07,1.67
				c0.03,0.3,0.05,0.46,0.06,0.5c0,0.27-0.01,0.46-0.04,0.55c-0.03,0.1-0.07,0.17-0.14,0.21c-0.06,0.05-0.17,0.08-0.33,0.09
				c-0.04,0.02-0.12,0-0.22-0.05c-0.11-0.04-0.19-0.11-0.25-0.2l-0.06-0.4c0.01-0.02-0.01-0.1-0.06-0.24
				c-0.05-0.07-0.09-0.18-0.12-0.35l-0.07-1.18l-0.01-0.4c-0.41,0.03-0.65-0.1-0.74-0.4c-0.07-0.16-0.08-0.26-0.04-0.31l0.05-0.16
				c0.08-0.16,0.25-0.24,0.49-0.24h0.22c-0.01-0.02-0.02-0.07-0.02-0.17l-0.04-0.52v-0.22l-0.01-0.16c0.01-0.07,0-0.16-0.01-0.25
				v-0.07l-0.02-0.31v-0.24l-0.01-0.12c0-0.59-0.03-0.96-0.08-1.12c-0.23,0.16-0.39,0.24-0.46,0.26c-0.08,0.01-0.21-0.05-0.39-0.19
				c-0.08-0.07-0.12-0.16-0.13-0.25c-0.13-0.21-0.17-0.38-0.13-0.51c0.01-0.07,0.07-0.17,0.17-0.31c0.01-0.03,0.09-0.11,0.25-0.22
				C443.74,534.2,443.96,534.09,444.27,534.03L444.27,534.03z"/>
			<path id="path964" class="st0" d="M450.75,538.18c0.03-0.12,0.02-0.28-0.01-0.47c-0.05-0.05-0.12-0.07-0.2-0.07
				c-0.11,0-0.2,0.12-0.29,0.35c-0.11,0.2-0.2,0.42-0.25,0.66h-0.01c-0.08,0.35-0.12,0.53-0.12,0.56c0.11,0.03,0.2,0.05,0.27,0.05
				c0.07-0.01,0.15-0.05,0.24-0.14C450.55,538.93,450.67,538.62,450.75,538.18L450.75,538.18z M450.72,539.97l-0.39,0.04
				c-0.22,0-0.39-0.02-0.52-0.07l0.03,0.24c0.02,0.69,0.18,1.14,0.49,1.35c0.08,0.04,0.15,0.06,0.21,0.06c0.06,0,0.13-0.03,0.22-0.1
				c0.03-0.03,0.05-0.08,0.07-0.14c0.01-0.07,0.04-0.11,0.11-0.1c0.29-0.43,0.51-0.6,0.65-0.51c0.15,0.12,0.22,0.21,0.22,0.27
				c0,0.03-0.02,0.07-0.05,0.11v0.07c0,0.08-0.05,0.23-0.14,0.45c-0.08,0.22-0.18,0.4-0.27,0.55c-0.05,0.12-0.11,0.21-0.19,0.26
				c-0.23,0.17-0.46,0.23-0.72,0.2c-0.06-0.01-0.1-0.02-0.12-0.05c-0.06-0.02-0.1-0.02-0.13-0.01l-0.08-0.01
				c-0.06,0-0.12-0.02-0.16-0.05c-0.07-0.05-0.12-0.07-0.15-0.07c-0.18-0.08-0.3-0.15-0.34-0.19c-0.04-0.04-0.07-0.07-0.1-0.09
				c-0.03-0.02-0.1-0.1-0.2-0.26c-0.09-0.09-0.14-0.15-0.16-0.17c-0.04-0.07-0.08-0.13-0.12-0.16c-0.03-0.03-0.05-0.11-0.05-0.22
				c-0.03-0.04-0.04-0.1-0.04-0.16l-0.04-0.1c0-0.06-0.02-0.1-0.06-0.14c-0.04-0.05-0.06-0.11-0.06-0.19v-0.1
				c-0.03-0.02-0.04-0.07-0.02-0.15v-0.32l-0.01-0.11V540c-0.01-0.03,0-0.1,0.02-0.21l-0.01-0.11c0.01-0.01,0.02-0.07,0.03-0.2
				c0.03-0.17,0.06-0.28,0.1-0.32v-0.11c0.01-0.02,0.01-0.06,0.01-0.1c0-0.04,0.01-0.09,0.02-0.14c0.02-0.05,0.08-0.24,0.17-0.56
				l0.17-0.43c0.05-0.12,0.13-0.26,0.23-0.41c0.01-0.04,0.04-0.12,0.08-0.22l0.14-0.15c0.04-0.07,0.11-0.13,0.19-0.16
				c0.1-0.06,0.17-0.09,0.22-0.09l0.3-0.05c0.04,0.01,0.06,0.01,0.07,0.01h0.14c0.15,0.02,0.28,0.05,0.38,0.11
				c0.21,0.07,0.37,0.17,0.46,0.29c0.22,0.29,0.33,0.57,0.33,0.83c0,0.27-0.04,0.49-0.11,0.68c-0.18,0.47-0.3,0.77-0.38,0.89
				C451.04,539.83,450.89,539.97,450.72,539.97L450.72,539.97z"/>
			<path id="path966" class="st0" d="M453.37,537.77l0.01-0.11c-0.15-0.02-0.25-0.03-0.32-0.04c-0.06-0.02-0.15-0.03-0.29-0.05
				c-0.13-0.02-0.24-0.04-0.32-0.07c-0.15-0.06-0.23-0.21-0.25-0.45c-0.02-0.25,0.05-0.4,0.2-0.46c0.14-0.04,0.24-0.06,0.3-0.06
				s0.16-0.01,0.32-0.02c0.08-0.05,0.18-0.08,0.32-0.09l0.16-0.05c0,0.01,0.03,0,0.08-0.02l0.05-0.26c0-0.13,0.03-0.27,0.1-0.4
				c0-0.06,0.05-0.22,0.14-0.48c0-0.03,0.06-0.27,0.19-0.72c0.03-0.04,0.13-0.14,0.32-0.29c0.11-0.07,0.27-0.02,0.48,0.14
				c0.11,0.06,0.19,0.14,0.23,0.24c-0.04,0.05-0.06,0.17-0.06,0.35c-0.01,0.06-0.06,0.36-0.15,0.92v0.35
				c0.06,0.01,0.15,0.03,0.27,0.06c0.13,0.03,0.29,0.07,0.48,0.11c0.35,0.08,0.57,0.25,0.67,0.5c0.04,0.18,0.03,0.31-0.02,0.39
				c-0.05,0.07-0.17,0.13-0.36,0.16c-0.15,0.01-0.36,0.01-0.61,0.01c-0.25,0-0.43,0.02-0.55,0.06c-0.01,0.15-0.02,0.27-0.02,0.35
				l-0.01,0.19c0,0.06-0.03,0.36-0.1,0.92c-0.04,0.07-0.08,0.46-0.11,1.16v0.91c0,0.15,0.01,0.29,0.03,0.42
				c0.01,0.18,0.02,0.31,0.05,0.39c0,0.07,0.02,0.23,0.05,0.47c-0.08,0.24-0.23,0.36-0.42,0.36c-0.19,0-0.36-0.08-0.51-0.25
				l-0.12-0.2c-0.02-0.07-0.04-0.11-0.05-0.14c-0.01-0.02-0.01-0.05-0.02-0.09c-0.05-0.17-0.09-0.27-0.12-0.31
				c-0.04-0.07-0.06-0.12-0.06-0.15c0-0.03,0-0.07,0-0.12c-0.01-0.14-0.03-0.26-0.05-0.36c-0.04-0.04-0.05-0.18-0.05-0.42
				c0.01-0.44,0.01-0.69,0-0.76c0.02-0.02,0.02-0.18,0.01-0.47l0.03-0.27c0-0.03,0.01-0.16,0.04-0.37
				c-0.01-0.03-0.02-0.12-0.01-0.26c0.01-0.15,0.02-0.25,0.03-0.31C453.36,538.04,453.37,537.91,453.37,537.77L453.37,537.77z"/>
			<path id="path968" class="st0" d="M458.54,538.91c0.01-0.02,0.02-0.17,0.04-0.43c-0.01-0.02-0.03-0.12-0.05-0.27
				c-0.06-0.13-0.13-0.23-0.22-0.3c-0.11-0.06-0.18-0.09-0.2-0.09c-0.06,0.02-0.11,0.05-0.14,0.09c-0.02,0.02-0.08,0.14-0.18,0.35
				c-0.09,0.21-0.17,0.55-0.23,1.03c-0.06,0.48-0.08,0.83-0.08,1.04c0,0.22,0.01,0.48,0.02,0.8c0.01,0.31,0.07,0.45,0.17,0.43
				c0.09-0.02,0.22-0.31,0.38-0.89c0.01-0.04,0.03-0.12,0.07-0.22L458.54,538.91z M459.77,538.4c0,0.44,0.04,0.84,0.12,1.21
				c0.04,0.36,0.1,0.75,0.19,1.17c0.02,0.17,0.03,0.25,0.02,0.25c0.18,0.46,0.27,0.73,0.3,0.82c0.02,0.08,0.02,0.15-0.01,0.21v-0.01
				c-0.02,0.07-0.09,0.14-0.2,0.2c-0.11,0.07-0.2,0.11-0.29,0.12c-0.27,0.1-0.43-0.02-0.48-0.36c-0.03-0.02-0.07-0.07-0.13-0.15
				c-0.05-0.08-0.08-0.15-0.08-0.2c-0.01-0.06-0.03-0.11-0.07-0.16c-0.01-0.04-0.05-0.1-0.1-0.16c-0.05-0.07-0.08-0.13-0.08-0.2
				l-0.03-0.34l-0.02-0.01c-0.11,0.27-0.19,0.46-0.22,0.57c-0.08,0.28-0.23,0.6-0.44,0.97c-0.24,0.31-0.53,0.41-0.88,0.27
				c-0.13-0.01-0.23-0.05-0.31-0.14c-0.07-0.08-0.12-0.13-0.15-0.14c-0.04-0.02-0.1-0.08-0.18-0.19c-0.13-0.2-0.2-0.49-0.23-0.88
				v-0.32c0.02-0.04,0.02-0.24,0-0.6v-0.07c-0.04-0.25-0.06-0.4-0.06-0.45c0-0.05,0.01-0.12,0.02-0.2c0.01-0.08,0.02-0.13,0.01-0.15
				c-0.01-0.02-0.01-0.06-0.01-0.11v-0.19l0.05-0.67c0.08-0.29,0.16-0.55,0.25-0.78c0.03-0.14,0.08-0.25,0.16-0.34
				c0.18-0.22,0.27-0.35,0.29-0.39c0.05-0.12,0.23-0.22,0.55-0.3l0.18,0.01c0.07,0,0.13,0.01,0.19,0.04
				c0.06,0.02,0.1,0.02,0.12,0.02c0.1,0.06,0.18,0.09,0.24,0.09c0.06,0,0.17,0.06,0.32,0.17c0.04,0.01,0.15,0.08,0.32,0.21
				c0.18,0.14,0.29,0.22,0.32,0.24l0.27,0.11c0.08,0.07,0.12,0.12,0.12,0.12C459.83,537.73,459.81,537.95,459.77,538.4L459.77,538.4
				z"/>
			<path id="path970" class="st0" d="M461.19,540.92c0-0.03,0.01-0.16,0.02-0.37c-0.06-0.1-0.08-0.32-0.08-0.67
				c-0.01-0.89-0.01-1.34-0.01-1.35c0.01-0.02,0-0.05-0.02-0.09c-0.02-0.05-0.03-0.1-0.03-0.15v-0.14
				c-0.03-0.27-0.01-0.48,0.04-0.62c0.01-0.08,0.05-0.15,0.12-0.19c0.05-0.08,0.12-0.12,0.21-0.12c0.09,0,0.17,0.01,0.23,0.04
				c0.05-0.02,0.1,0.01,0.14,0.1c0.08,0.04,0.13,0.06,0.14,0.06l0.05,0.05c0.06,0,0.09,0.01,0.11,0.04
				c0.02,0.02,0.04,0.07,0.04,0.15l0.1,1.08v0.21c0.01,0.1,0.02,0.18,0.02,0.24l0.01,0.58l0.04,0.01c0.04-0.2,0.09-0.36,0.14-0.5
				c0.06-0.14,0.09-0.24,0.11-0.31c0.01-0.07,0.03-0.13,0.07-0.19c0.04-0.1,0.06-0.17,0.06-0.21s0.03-0.1,0.08-0.16
				c0.06-0.18,0.12-0.31,0.18-0.4l0.03-0.1c0.03-0.05,0.05-0.09,0.06-0.12c0.08-0.07,0.13-0.14,0.17-0.2l0.08-0.07
				c0.01,0,0.03-0.02,0.04-0.06c0.01-0.05,0.11-0.08,0.27-0.09c0.13-0.02,0.25-0.02,0.34,0c0.06,0,0.1,0,0.12,0.01l0.06,0.07
				l0.08,0.02c0.12,0.07,0.2,0.25,0.23,0.53c0,0.56,0.02,0.94,0.05,1.12c0.05,0.47,0.13,0.89,0.24,1.27
				c0.12,0.37,0.24,0.62,0.35,0.75c0.15,0.22,0.18,0.46,0.08,0.71c-0.06,0.12-0.14,0.19-0.24,0.2c-0.1,0.01-0.17,0-0.21-0.01
				c-0.06,0-0.1-0.01-0.14-0.04c-0.08,0.02-0.14,0-0.2-0.06c-0.06,0-0.11-0.04-0.15-0.11c-0.25-0.38-0.39-0.62-0.43-0.71
				c-0.04-0.09-0.06-0.15-0.08-0.19c-0.01-0.03-0.02-0.06-0.03-0.09c-0.01-0.02-0.02-0.06-0.03-0.11c-0.01-0.07-0.04-0.14-0.08-0.2
				c-0.04-0.07-0.05-0.12-0.05-0.15c-0.02-0.04-0.04-0.11-0.04-0.2c-0.04-0.03-0.06-0.07-0.06-0.12c-0.04-0.02-0.06-0.1-0.07-0.22
				l-0.04-0.32l-0.02-0.01c-0.35,0.52-0.55,1.11-0.6,1.78c-0.01,0.17-0.03,0.27-0.04,0.32c-0.04,0.07-0.02,0.17,0.04,0.31v0.07
				c0,0.03-0.04,0.1-0.12,0.19c-0.08,0.01-0.13,0.01-0.15,0.01h-0.12c-0.01,0-0.04,0.01-0.08,0.04c-0.04,0-0.08,0.01-0.11,0.02
				c-0.03,0.02-0.07,0.01-0.12-0.01c-0.13-0.01-0.2-0.02-0.22-0.04c-0.02-0.01-0.05-0.02-0.1-0.04c-0.04-0.01-0.08-0.03-0.11-0.07
				c-0.04,0-0.06-0.02-0.07-0.07c-0.18-0.22-0.27-0.4-0.27-0.55v-0.09l-0.01-0.1C461.23,541.15,461.22,541.03,461.19,540.92
				L461.19,540.92z"/>
			<path id="path972" class="st0" d="M467.17,535.12h0.03c0.25,0.02,0.4,0.1,0.48,0.26c0.08,0.15,0.11,0.29,0.08,0.43
				c-0.01,0.14-0.11,0.31-0.29,0.52c-0.17,0.21-0.32,0.31-0.46,0.3c-0.04,0-0.13-0.02-0.25-0.07c-0.12-0.05-0.18-0.08-0.19-0.09
				c-0.01-0.03-0.03-0.06-0.06-0.07c-0.18-0.08-0.29-0.29-0.31-0.63c0-0.03,0.02-0.06,0.06-0.07c-0.03,0-0.03-0.05-0.01-0.15
				c0.05-0.18,0.16-0.3,0.33-0.36C466.8,535.13,467,535.11,467.17,535.12L467.17,535.12z M467.15,538.26l-0.18,2.08
				c0,0.05,0,0.1,0,0.15c0,0.04,0,0.08,0.01,0.11c-0.01,0.03-0.01,0.07-0.01,0.12v0.89c0.03,0.28,0.03,0.45,0,0.5
				c-0.04,0.02-0.09,0.04-0.15,0.07c-0.06,0.04-0.17,0.05-0.33,0.02c-0.15-0.02-0.27-0.05-0.34-0.09l-0.13-0.04
				c-0.07,0-0.12-0.04-0.14-0.11c-0.09-0.07-0.14-0.15-0.15-0.26c-0.02-0.04,0-0.1,0.07-0.17c-0.01-0.04-0.02-0.1-0.04-0.17
				c-0.02-0.08-0.03-0.16-0.02-0.22c0.02-0.04,0.01-0.1-0.03-0.19c0-0.09,0.01-0.19,0.03-0.31c0.03-0.03,0.04-0.15,0.02-0.36
				c0.05-0.08,0.07-0.2,0.07-0.35c-0.03-0.13-0.02-0.27,0.03-0.4c0.05-0.13,0.08-0.27,0.08-0.4c0.01-0.21,0.05-0.41,0.1-0.61
				c0-0.08,0.03-0.22,0.1-0.4c0.07-0.18,0.12-0.29,0.14-0.32l0.17-0.2l0.19-0.09h0.01c0.08-0.03,0.17-0.03,0.25,0.01
				c0.2,0.09,0.33,0.16,0.37,0.21c-0.03,0.03-0.05,0.08-0.05,0.15c-0.01,0.07-0.01,0.12-0.02,0.17
				C467.19,538.12,467.17,538.18,467.15,538.26L467.15,538.26z"/>
		</g>
	</g>
</g>
</svg>
