<?xml version="1.0" encoding="utf-8"?>
<!-- Generator: Adobe Illustrator 25.0.0, SVG Export Plug-In . SVG Version: 6.00 Build 0)  -->
<svg version="1.1" id="Capa_1" xmlns="http://www.w3.org/2000/svg" xmlns:xlink="http://www.w3.org/1999/xlink" x="0px" y="0px"
	 viewBox="0 0 800 600" style="enable-background:new 0 0 800 600;" xml:space="preserve">
<style type="text/css">
	.st0{fill-rule:evenodd;clip-rule:evenodd;fill:#DD4814;}
	.st1{fill-rule:evenodd;clip-rule:evenodd;fill:#FFFFFF;}
	.st2{fill-rule:evenodd;clip-rule:evenodd;fill:none;}
</style>
<g>
	<path class="st0" d="M399.7,357.1c-82.5-0.6-148.7-67.1-147.9-148.6c0.8-83.6,67-149,150.9-147.8c81.4,1.1,147.2,67.7,145.5,151.4
		C546.5,294.5,479.2,357.5,399.7,357.1z M367.2,256.4c-30.1-21.4-35.2-69.5-0.1-95.2c-4.9-8.1-9.7-16.2-14.8-24.5
		c-17.8,12.5-29.8,28.2-35.3,48.5c-0.4,1.3,0.7,3.5,1.8,4.6c10.2,11.2,10.5,27,0.2,37.8c-2.3,2.4-2.5,4.4-1.6,7.3
		c4.6,14.1,12.1,26.4,22.8,36.6c3.6,3.5,7.7,6.4,12,10C357.4,272.7,362.2,264.6,367.2,256.4z M361.5,285.8c0.4,0.5,0.6,0.8,0.8,0.9
		c18.9,9.3,38.6,11.1,58.9,6c1.1-0.3,2.2-1.7,2.6-2.9c5-15.7,17.8-23.2,33.8-19.9c1.4,0.3,3.6-0.1,4.6-1
		c13.8-14.3,21.8-31.3,23.9-51.1c0.3-3-0.8-4-3.5-3.9c-7,0-14,0.1-20.9-0.1c-3.3-0.1-4.4,0.9-4.9,4.3c-3.8,26.7-27.4,47.4-54.4,48.3
		c-9.3,0.3-18.1-1.7-26.9-5.3C370.6,269.5,366,277.7,361.5,285.8z M375.3,156.9c1.9-0.8,3.3-1.3,4.6-1.8c32-11.8,67.4,6.7,75.7,39.6
		c0.8,3.1,0.5,7.5,2.4,8.9c2.2,1.6,6.3,0.5,9.6,0.5c6.1,0,12.1,0,18,0c0.2-1.3,0.4-1.7,0.3-2.2c-1.4-20.5-9.8-38-23.8-52.8
		c-0.9-0.9-3.2-1.3-4.6-1c-15.5,3.4-29-4.4-33.8-19.4c-0.5-1.5-2.3-3.3-3.9-3.7c-10.6-2.8-21.5-3.3-32.4-1.6
		c-9,1.4-17.8,3.8-26.3,8.4C366,140.1,370.6,148.3,375.3,156.9z M298.8,229.1c11.4,0.1,20.3-8.6,20.4-19.8
		c0.1-11.5-8.9-20.7-20.2-20.7c-11,0-20.2,9.3-20.3,20.3C278.6,219.9,287.6,229,298.8,229.1z M450.3,141.7
		c11.2,0.1,20.3-8.8,20.6-20c0.2-10.9-9.1-20.4-20.1-20.5c-11.3-0.1-20.3,8.8-20.4,20C430.2,132.6,439,141.7,450.3,141.7z
		 M450.3,316.6c11.4,0.1,20.6-9.1,20.5-20.3c-0.1-10.9-9.5-20.2-20.4-20.2c-11.1,0-20.1,9.1-20.1,20.3
		C430.2,307.6,439,316.5,450.3,316.6z"/>
	<path class="st1" d="M367.2,256.4c-4.9,8.2-9.7,16.3-15,25c-4.3-3.6-8.4-6.5-12-10c-10.7-10.2-18.2-22.5-22.8-36.6
		c-0.9-2.9-0.7-4.9,1.6-7.3c10.3-10.8,10.1-26.6-0.2-37.8c-1.1-1.2-2.1-3.3-1.8-4.6c5.6-20.3,17.5-36,35.3-48.5
		c5,8.3,9.9,16.5,14.8,24.5C332,186.9,337,235.1,367.2,256.4z"/>
	<path class="st1" d="M361.5,285.8c4.5-8.1,9.1-16.3,13.8-24.7c8.8,3.6,17.6,5.6,26.9,5.3c27-0.9,50.6-21.6,54.4-48.3
		c0.5-3.3,1.6-4.4,4.9-4.3c7,0.3,14,0.2,20.9,0.1c2.8,0,3.8,1,3.5,3.9c-2,19.8-10,36.8-23.9,51.1c-0.9,0.9-3.1,1.3-4.6,1
		c-16-3.3-28.7,4.2-33.8,19.9c-0.4,1.2-1.5,2.6-2.6,2.9c-20.3,5.1-40,3.3-58.9-6C362.1,286.6,362,286.3,361.5,285.8z"/>
	<path class="st1" d="M375.3,156.9c-4.7-8.5-9.3-16.7-14-25.2c8.5-4.7,17.3-7,26.3-8.4c10.9-1.7,21.7-1.2,32.4,1.6
		c1.5,0.4,3.4,2.2,3.9,3.7c4.7,15,18.3,22.8,33.8,19.4c1.4-0.3,3.7,0,4.6,1c14.1,14.8,22.4,32.3,23.8,52.8c0,0.4-0.1,0.9-0.3,2.2
		c-5.9,0-12,0-18,0c-3.3,0-7.4,1.1-9.6-0.5c-1.9-1.4-1.6-5.8-2.4-8.9c-8.3-32.9-43.7-51.4-75.7-39.6
		C378.6,155.6,377.3,156.1,375.3,156.9z"/>
	<path class="st1" d="M298.8,229.1c-11.2-0.1-20.2-9.1-20.1-20.2c0.1-11,9.4-20.3,20.3-20.3c11.3,0,20.3,9.1,20.2,20.7
		C319.1,220.5,310.3,229.1,298.8,229.1z"/>
	<path class="st1" d="M450.3,141.7c-11.2-0.1-20.1-9.1-20-20.4c0.1-11.2,9.1-20.1,20.4-20c11,0.1,20.4,9.6,20.1,20.5
		C470.6,132.9,461.5,141.8,450.3,141.7z"/>
	<path class="st1" d="M450.3,316.6c-11.3-0.1-20.1-9-20-20.3c0.1-11.2,9-20.3,20.1-20.3c10.9,0,20.3,9.3,20.4,20.2
		C470.9,307.4,461.7,316.6,450.3,316.6z"/>
</g>
<g>
	<path class="st0" d="M221.8,384.4c5.7-1,11.2-2,17.4-3c0,17.4,0,34.4,0,51.2c6.6-1.7,12.6-4.1,18.8-4.8
		c26.4-2.8,45.4,12.3,49.2,38.7c1.8,12.9,1.4,25.6-4.3,37.6c-7.8,16.6-21.7,24.5-39.5,25.8c-13,0.9-25.8-0.8-38.5-4
		c-2.3-0.6-3.4-1.3-3.4-4c0.1-45.1,0.1-90.2,0.1-135.2C221.6,386,221.7,385.3,221.8,384.4z M239.3,513.1c7.5,0.4,14.7,1.2,21.9,1.1
		c12-0.2,21.7-7.6,25.7-18.8c3.4-9.7,3.4-19.6,1.3-29.6c-3.4-15.9-13.7-24-29.6-22.4c-5.5,0.6-10.7,3.2-16,5c-2.7,0.9-3.4,3-3.4,5.8
		c0.1,13.7,0.1,27.3,0.1,41C239.3,500.8,239.3,506.4,239.3,513.1z"/>
	<path class="st0" d="M431.1,432.5c16.5-4.1,33.2-6.6,50-3.8c15.7,2.5,25,12.3,27.6,27.9c0.9,5.3,1.3,10.7,1.4,16
		c0.2,16.6,0.1,33.2,0.1,49.7c0,1.6,0,3.2,0,5.1c-6,0-11.7,0-17.7,0c0-9.7,0.1-19.1,0-28.5c-0.2-11.6,0.2-23.3-0.9-34.8
		c-1.4-15-7.6-20.3-22.7-20.8c-6.6-0.2-13.2,0.9-20.1,1.4c0,28,0,55.3,0,82.9c-6,0-11.6,0-17.5,0C431.1,496,431.1,464.6,431.1,432.5
		z"/>
	<path class="st0" d="M326.4,429.8c6,0,11.5,0,17.6,0c0,1.8,0,3.5,0,5.1c0.2,18.3,0.4,36.6,0.7,54.9c0,2.3,0.5,4.6,1,6.9
		c2.3,10.7,8.1,16.4,19,17.2c6.7,0.5,13.6-0.6,20.4-1c3.4-0.2,2.8-2.7,2.8-4.8c0-24.3,0-48.6,0-72.9c0-1.7,0-3.4,0-5.4
		c6,0,11.6,0,17.9,0c0,1.2,0,2.6,0,4c0,28.9-0.1,57.9,0.1,86.8c0,3.4-1,4.6-4.4,5.3c-13.7,2.8-27.5,5-41.5,3.4
		c-19.8-2.3-30.6-13.2-32.7-33c-1-9.5-0.8-19.1-0.9-28.7C326.3,455.2,326.4,442.7,326.4,429.8z"/>
	<path class="st0" d="M665.2,429.9c6.4,0,12,0,17.9,0c0.1,1.5,0.2,2.8,0.2,4c0,28.9,0,57.9,0.1,86.8c0,3.1-0.7,4.5-4.1,5.2
		c-14.3,2.9-28.7,5.2-43.3,3.3c-17.9-2.3-28.5-12.7-31-30.7c-0.9-6.3-1-12.7-1.1-19.1c-0.1-16.4,0-32.8,0-49.5c5.9,0,11.5,0,17.6,0
		c0,1.6,0,3.1,0,4.6c0,15.4-0.1,30.8,0.1,46.3c0.1,5.3,0.6,10.8,1.7,16c2.3,11.2,8.4,16.7,19.9,17.2c7.2,0.3,14.5-0.6,22.1-1
		C665.2,485,665.2,457.5,665.2,429.9z"/>
	<path class="st0" d="M116.6,429.8c6.6,0,12.1,0,18.2,0c0,1.8,0,3.6,0,5.3c0.1,17.3,0.1,34.6,0.4,51.9c0.1,4.2,0.9,8.4,2,12.4
		c2.2,8,7.4,12.9,15.8,14.3c6.5,1.1,19.5,0.4,25.7-1.7c0-27.2,0-54.5,0-82.1c5.9,0,11.5,0,17.6,0c0.1,1.3,0.2,2.7,0.2,4.1
		c0,28.9,0,57.9,0.1,86.8c0,3.1-0.6,4.8-4.1,5.1c-12.3,1.2-24.5,3.6-36.7,3.7c-21.9,0.3-35.5-10.8-37.4-32.5
		C116.3,475,117.1,452.5,116.6,429.8z"/>
	<path class="st0" d="M550.7,399.3c0,10,0,19.9,0,30.2c12.4,0,24.6,0,36.9,0c0,5.2,0,9.9,0,15c-12.3,0-24.3,0-36.6,0
		c-0.1,1.6-0.2,2.8-0.2,4.1c0,14.5,0,29.1,0,43.6c0.1,18.1,7.7,24.6,25.6,21.4c3.8-0.7,7.5-2.1,11.7-3.3c1.2,4.5,2.5,9.2,3.8,14.1
		c-13.8,6-27.8,7.9-42,2.6c-9.5-3.6-13.9-11.6-15.5-21.1c-0.9-5.7-1.4-11.6-1.4-17.3c-0.1-27.2,0-54.4-0.1-81.5
		c0-3.6,0.8-5.2,4.7-5.5C541.8,401.2,546,400.1,550.7,399.3z"/>
	<path class="st2" d="M239.3,513.1c0-6.7,0-12.3,0-18c0-13.7,0.1-27.3-0.1-41c0-2.8,0.7-4.9,3.4-5.8c5.3-1.8,10.6-4.4,16-5
		c15.9-1.7,26.2,6.5,29.6,22.4c2.1,10,2.1,19.9-1.3,29.6c-4,11.2-13.8,18.6-25.7,18.8C254,514.3,246.8,513.5,239.3,513.1z"/>
</g>
</svg>
